<svg width="50" height="50" viewBox="0 0 50 50" fill="none" xmlns="http://www.w3.org/2000/svg">
<path d="M47.9166 8.33332V20.8333M47.9166 20.8333H35.4166M47.9166 20.8333L38.2708 11.75C35.397 8.87444 31.6666 7.01079 27.6415 6.43987C23.6164 5.86895 19.5148 6.62169 15.9548 8.58465C12.3948 10.5476 9.56918 13.6145 7.90379 17.323C6.23841 21.0316 5.82347 25.181 6.72151 29.1459C7.61954 33.1109 9.7819 36.6765 12.8827 39.3056C15.9836 41.9346 19.8549 43.4846 23.9133 43.722C27.9717 43.9595 31.9973 42.8714 35.3836 40.6219C38.7698 38.3723 41.3332 35.0832 42.6874 31.25" stroke="#020315" stroke-width="1.6" stroke-linecap="round" stroke-linejoin="round"/>
</svg>
